<svg width="334.975" height="16.775" viewBox="0 0 334.975 16.775" xmlns="http://www.w3.org/2000/svg"><g id="svgGroup" stroke-linecap="round" fill-rule="evenodd" font-size="9pt" stroke="#ffd300" stroke-width="0.25mm" fill="#ffd300" style="stroke:#ffd300;stroke-width:0.25mm;fill:#ffd300"><path d="M 19.15 8.425 L 19.15 0 L 22.45 0 L 22.45 16.575 L 19.15 16.575 L 16 8.425 L 16 16.575 L 12.625 16.575 L 12.625 0 L 16 0 L 19.15 8.425 Z M 69.15 8.425 L 69.15 0 L 72.45 0 L 72.45 16.575 L 69.15 16.575 L 66 8.425 L 66 16.575 L 62.625 16.575 L 62.625 0 L 66 0 L 69.15 8.425 Z M 131.65 8.425 L 131.65 0 L 134.95 0 L 134.95 16.575 L 131.65 16.575 L 128.5 8.425 L 128.5 16.575 L 125.125 16.575 L 125.125 0 L 128.5 0 L 131.65 8.425 Z M 244.15 8.425 L 244.15 0 L 247.45 0 L 247.45 16.575 L 244.15 16.575 L 241 8.425 L 241 16.575 L 237.625 16.575 L 237.625 0 L 241 0 L 244.15 8.425 Z M 184.95 5.05 L 184.95 6.75 L 184.75 6.75 L 181.675 6.75 L 181.675 5.05 A 1.678 1.678 0 0 0 181.248 3.928 A 2.152 2.152 0 0 0 181.212 3.888 A 1.528 1.528 0 0 0 180.21 3.388 A 2.14 2.14 0 0 0 179.975 3.375 A 1.332 1.332 0 0 0 179.351 3.52 A 1.382 1.382 0 0 0 178.913 3.888 Q 178.5 4.4 178.5 5.05 A 1.84 1.84 0 0 0 178.833 6.102 A 2.319 2.319 0 0 0 178.913 6.213 A 1.431 1.431 0 0 0 179.295 6.565 A 1.27 1.27 0 0 0 179.975 6.75 Q 180.425 6.75 180.875 6.775 A 2.25 2.25 0 0 1 181.325 6.844 A 1.816 1.816 0 0 1 181.675 6.975 Q 182.275 7.075 182.775 7.5 Q 183.275 7.925 183.725 8.425 A 2.56 2.56 0 0 1 184.031 8.735 Q 184.167 8.898 184.296 9.096 A 4.408 4.408 0 0 1 184.337 9.163 A 3.372 3.372 0 0 1 184.738 10.078 A 3.186 3.186 0 0 1 184.75 10.125 A 1.986 1.986 0 0 0 184.762 10.332 Q 184.784 10.546 184.85 10.825 A 4.316 4.316 0 0 1 184.915 11.154 Q 184.94 11.318 184.947 11.464 A 2.282 2.282 0 0 1 184.95 11.575 Q 184.95 12.025 184.85 12.475 Q 184.755 12.904 184.75 13.175 A 1.58 1.58 0 0 0 184.75 13.2 A 6.197 6.197 0 0 1 183.899 14.681 A 5.666 5.666 0 0 1 183.537 15.1 A 5.241 5.241 0 0 1 181.912 16.247 A 6.105 6.105 0 0 1 181.675 16.35 A 2.629 2.629 0 0 0 181.35 16.372 Q 181.183 16.392 181 16.433 A 4.789 4.789 0 0 0 180.875 16.463 Q 180.425 16.575 179.975 16.575 A 2.317 2.317 0 0 1 179.692 16.556 Q 179.472 16.529 179.213 16.463 A 4.885 4.885 0 0 0 178.955 16.403 Q 178.702 16.353 178.519 16.35 A 1.385 1.385 0 0 0 178.5 16.35 Q 177.4 15.9 176.513 15.1 A 3.841 3.841 0 0 1 175.582 13.858 A 3.689 3.689 0 0 1 175.35 13.2 A 1.238 1.238 0 0 1 175.249 12.948 Q 175.212 12.82 175.193 12.669 A 2.661 2.661 0 0 1 175.175 12.475 Q 175.15 12.025 175.15 11.575 L 175.15 10.125 L 175.35 10.125 L 178.5 10.125 L 178.5 11.575 Q 178.5 12.171 178.744 12.56 A 1.298 1.298 0 0 0 178.913 12.775 A 1.383 1.383 0 0 0 179.831 13.195 A 1.872 1.872 0 0 0 179.975 13.2 A 2.289 2.289 0 0 0 180.502 13.143 A 1.559 1.559 0 0 0 181.212 12.775 A 1.384 1.384 0 0 0 181.625 12.046 A 2.101 2.101 0 0 0 181.675 11.575 A 1.48 1.48 0 0 0 181.59 11.063 A 1.29 1.29 0 0 0 181.213 10.525 A 1.577 1.577 0 0 0 180.553 10.191 Q 180.29 10.125 179.975 10.125 Q 179.65 10.125 179.213 9.988 Q 178.878 9.882 178.638 9.755 A 2.028 2.028 0 0 1 178.5 9.675 Q 177.85 9.5 177.363 9.188 Q 176.875 8.875 176.375 8.425 A 38.647 38.647 0 0 0 176.103 8.011 Q 175.977 7.824 175.863 7.658 A 21.79 21.79 0 0 0 175.788 7.55 Q 175.525 7.175 175.35 6.75 Q 175.2 6.25 175.175 5.875 Q 175.15 5.5 175.15 5.05 A 17.831 17.831 0 0 1 175.156 4.569 A 14.014 14.014 0 0 1 175.175 4.125 Q 175.2 3.7 175.35 3.375 Q 175.625 2.25 176.513 1.513 Q 177.4 0.775 178.5 0.45 A 2.223 2.223 0 0 1 178.75 0.314 Q 178.877 0.255 179.026 0.201 A 4.477 4.477 0 0 1 179.212 0.138 A 3.585 3.585 0 0 1 179.525 0.054 Q 179.679 0.02 179.816 0.008 A 1.737 1.737 0 0 1 179.975 0 Q 180.425 0 180.875 0.138 Q 181.325 0.275 181.675 0.45 A 4.637 4.637 0 0 1 182.973 1.054 A 4.202 4.202 0 0 1 183.537 1.513 Q 184.3 2.25 184.75 3.375 A 2.582 2.582 0 0 0 184.769 3.678 Q 184.787 3.832 184.823 4.004 A 4.821 4.821 0 0 0 184.85 4.125 A 3.739 3.739 0 0 1 184.936 4.686 A 4.601 4.601 0 0 1 184.95 5.05 Z M 272.45 5.05 L 272.45 6.75 L 272.25 6.75 L 269.175 6.75 L 269.175 5.05 A 1.678 1.678 0 0 0 268.748 3.928 A 2.152 2.152 0 0 0 268.712 3.888 A 1.528 1.528 0 0 0 267.71 3.388 A 2.14 2.14 0 0 0 267.475 3.375 A 1.332 1.332 0 0 0 266.851 3.52 A 1.382 1.382 0 0 0 266.413 3.888 Q 266 4.4 266 5.05 A 1.84 1.84 0 0 0 266.333 6.102 A 2.319 2.319 0 0 0 266.413 6.213 A 1.431 1.431 0 0 0 266.795 6.565 A 1.27 1.27 0 0 0 267.475 6.75 Q 267.925 6.75 268.375 6.775 A 2.25 2.25 0 0 1 268.825 6.844 A 1.816 1.816 0 0 1 269.175 6.975 Q 269.775 7.075 270.275 7.5 Q 270.775 7.925 271.225 8.425 A 2.56 2.56 0 0 1 271.531 8.735 Q 271.667 8.898 271.796 9.096 A 4.408 4.408 0 0 1 271.837 9.163 A 3.372 3.372 0 0 1 272.238 10.078 A 3.186 3.186 0 0 1 272.25 10.125 A 1.986 1.986 0 0 0 272.262 10.332 Q 272.284 10.546 272.35 10.825 A 4.316 4.316 0 0 1 272.415 11.154 Q 272.44 11.318 272.447 11.464 A 2.282 2.282 0 0 1 272.45 11.575 Q 272.45 12.025 272.35 12.475 Q 272.255 12.904 272.25 13.175 A 1.58 1.58 0 0 0 272.25 13.2 A 6.197 6.197 0 0 1 271.399 14.681 A 5.666 5.666 0 0 1 271.037 15.1 A 5.241 5.241 0 0 1 269.412 16.247 A 6.105 6.105 0 0 1 269.175 16.35 A 2.629 2.629 0 0 0 268.85 16.372 Q 268.683 16.392 268.5 16.433 A 4.789 4.789 0 0 0 268.375 16.463 Q 267.925 16.575 267.475 16.575 A 2.317 2.317 0 0 1 267.192 16.556 Q 266.972 16.529 266.713 16.463 A 4.885 4.885 0 0 0 266.455 16.403 Q 266.202 16.353 266.019 16.35 A 1.385 1.385 0 0 0 266 16.35 Q 264.9 15.9 264.013 15.1 A 3.841 3.841 0 0 1 263.082 13.858 A 3.689 3.689 0 0 1 262.85 13.2 A 1.238 1.238 0 0 1 262.749 12.948 Q 262.712 12.82 262.693 12.669 A 2.661 2.661 0 0 1 262.675 12.475 Q 262.65 12.025 262.65 11.575 L 262.65 10.125 L 262.85 10.125 L 266 10.125 L 266 11.575 Q 266 12.171 266.244 12.56 A 1.298 1.298 0 0 0 266.413 12.775 A 1.383 1.383 0 0 0 267.331 13.195 A 1.872 1.872 0 0 0 267.475 13.2 A 2.289 2.289 0 0 0 268.002 13.143 A 1.559 1.559 0 0 0 268.712 12.775 A 1.384 1.384 0 0 0 269.125 12.046 A 2.101 2.101 0 0 0 269.175 11.575 A 1.48 1.48 0 0 0 269.09 11.063 A 1.29 1.29 0 0 0 268.713 10.525 A 1.577 1.577 0 0 0 268.053 10.191 Q 267.79 10.125 267.475 10.125 Q 267.15 10.125 266.713 9.988 Q 266.378 9.882 266.138 9.755 A 2.028 2.028 0 0 1 266 9.675 Q 265.35 9.5 264.862 9.188 Q 264.375 8.875 263.875 8.425 A 38.647 38.647 0 0 0 263.603 8.011 Q 263.477 7.824 263.363 7.658 A 21.79 21.79 0 0 0 263.288 7.55 Q 263.025 7.175 262.85 6.75 Q 262.7 6.25 262.675 5.875 Q 262.65 5.5 262.65 5.05 A 17.831 17.831 0 0 1 262.656 4.569 A 14.014 14.014 0 0 1 262.675 4.125 Q 262.7 3.7 262.85 3.375 Q 263.125 2.25 264.013 1.513 Q 264.9 0.775 266 0.45 A 2.223 2.223 0 0 1 266.25 0.314 Q 266.377 0.255 266.526 0.201 A 4.477 4.477 0 0 1 266.712 0.138 A 3.585 3.585 0 0 1 267.025 0.054 Q 267.179 0.02 267.316 0.008 A 1.737 1.737 0 0 1 267.475 0 Q 267.925 0 268.375 0.138 Q 268.825 0.275 269.175 0.45 A 4.637 4.637 0 0 1 270.473 1.054 A 4.202 4.202 0 0 1 271.037 1.513 Q 271.8 2.25 272.25 3.375 A 2.582 2.582 0 0 0 272.269 3.678 Q 272.287 3.832 272.323 4.004 A 4.821 4.821 0 0 0 272.35 4.125 A 3.739 3.739 0 0 1 272.436 4.686 A 4.601 4.601 0 0 1 272.45 5.05 Z M 206.575 0.45 L 206.575 0 L 209.95 0 L 209.95 3.375 L 209.95 5.05 L 209.95 6.75 L 209.95 10.125 L 209.95 11.575 Q 209.95 12.025 209.838 12.475 Q 209.732 12.898 209.725 13.166 A 1.424 1.424 0 0 0 209.725 13.2 A 7.091 7.091 0 0 1 208.892 14.599 A 6.274 6.274 0 0 1 208.463 15.1 A 5.122 5.122 0 0 1 206.984 16.169 A 6.101 6.101 0 0 1 206.575 16.35 A 2.53 2.53 0 0 0 206.185 16.382 A 3.427 3.427 0 0 0 205.813 16.463 A 3.149 3.149 0 0 1 205.292 16.556 A 4.002 4.002 0 0 1 204.9 16.575 A 2.442 2.442 0 0 1 204.448 16.531 A 3.044 3.044 0 0 1 204.162 16.463 A 2.913 2.913 0 0 0 203.738 16.372 A 2.353 2.353 0 0 0 203.425 16.35 Q 202.3 15.9 201.45 15.1 Q 200.6 14.3 200.275 13.2 Q 200.1 12.925 200.075 12.475 Q 200.05 12.025 200.05 11.575 L 200.05 10.125 L 200.05 6.75 L 200.05 5.05 L 200.05 3.375 L 200.05 0 L 203.425 0 L 203.425 0.45 L 203.425 3.375 L 203.425 5.05 L 203.425 6.75 L 203.425 6.975 L 203.425 9.675 L 203.425 10.125 L 203.425 11.575 A 2.268 2.268 0 0 0 203.473 12.056 Q 203.568 12.493 203.85 12.775 Q 204.275 13.2 204.9 13.2 A 2.282 2.282 0 0 0 205.41 13.146 Q 205.835 13.049 206.125 12.775 A 1.385 1.385 0 0 0 206.519 12.077 Q 206.573 11.855 206.575 11.592 A 2.646 2.646 0 0 0 206.575 11.575 L 206.575 10.125 L 206.575 9.675 L 206.575 6.975 L 206.575 6.75 L 206.575 5.05 L 206.575 3.375 L 206.575 0.45 Z M 319.075 0.45 L 319.075 0 L 322.45 0 L 322.45 3.375 L 322.45 5.05 L 322.45 6.75 L 322.45 10.125 L 322.45 11.575 Q 322.45 12.025 322.338 12.475 Q 322.232 12.898 322.225 13.166 A 1.424 1.424 0 0 0 322.225 13.2 A 7.091 7.091 0 0 1 321.392 14.599 A 6.274 6.274 0 0 1 320.963 15.1 A 5.122 5.122 0 0 1 319.484 16.169 A 6.101 6.101 0 0 1 319.075 16.35 A 2.53 2.53 0 0 0 318.685 16.382 A 3.427 3.427 0 0 0 318.313 16.463 A 3.149 3.149 0 0 1 317.792 16.556 A 4.002 4.002 0 0 1 317.4 16.575 A 2.442 2.442 0 0 1 316.948 16.531 A 3.044 3.044 0 0 1 316.662 16.463 A 2.913 2.913 0 0 0 316.238 16.372 A 2.353 2.353 0 0 0 315.925 16.35 Q 314.8 15.9 313.95 15.1 Q 313.1 14.3 312.775 13.2 Q 312.6 12.925 312.575 12.475 Q 312.55 12.025 312.55 11.575 L 312.55 10.125 L 312.55 6.75 L 312.55 5.05 L 312.55 3.375 L 312.55 0 L 315.925 0 L 315.925 0.45 L 315.925 3.375 L 315.925 5.05 L 315.925 6.75 L 315.925 6.975 L 315.925 9.675 L 315.925 10.125 L 315.925 11.575 A 2.268 2.268 0 0 0 315.973 12.056 Q 316.068 12.493 316.35 12.775 Q 316.775 13.2 317.4 13.2 A 2.282 2.282 0 0 0 317.91 13.146 Q 318.335 13.049 318.625 12.775 A 1.385 1.385 0 0 0 319.019 12.077 Q 319.073 11.855 319.075 11.592 A 2.646 2.646 0 0 0 319.075 11.575 L 319.075 10.125 L 319.075 9.675 L 319.075 6.975 L 319.075 6.75 L 319.075 5.05 L 319.075 3.375 L 319.075 0.45 Z M 42.35 0 L 44.025 0 L 47.4 0 L 47.4 3.375 L 47.175 3.375 L 44.025 3.375 L 42.35 3.375 L 40.875 3.375 L 40.875 5.05 L 40.875 6.75 L 42.35 6.75 L 44.025 6.75 L 44.025 6.975 L 44.025 9.675 L 44.025 10.125 L 42.35 10.125 L 40.875 10.125 L 40.875 11.575 L 40.875 13.2 L 42.35 13.2 L 44.025 13.2 L 47.175 13.2 L 47.4 13.2 L 47.4 16.575 L 44.025 16.575 L 42.35 16.575 L 40.875 16.575 L 37.5 16.575 L 37.5 13.2 L 37.5 11.575 L 37.5 10.125 L 37.5 6.75 L 37.5 5.05 L 37.5 3.375 L 37.5 0 L 40.875 0 L 42.35 0 Z M 229.85 0 L 231.525 0 L 234.9 0 L 234.9 3.375 L 234.675 3.375 L 231.525 3.375 L 229.85 3.375 L 228.375 3.375 L 228.375 5.05 L 228.375 6.75 L 229.85 6.75 L 231.525 6.75 L 231.525 6.975 L 231.525 9.675 L 231.525 10.125 L 229.85 10.125 L 228.375 10.125 L 228.375 11.575 L 228.375 13.2 L 229.85 13.2 L 231.525 13.2 L 234.675 13.2 L 234.9 13.2 L 234.9 16.575 L 231.525 16.575 L 229.85 16.575 L 228.375 16.575 L 225 16.575 L 225 13.2 L 225 11.575 L 225 10.125 L 225 6.75 L 225 5.05 L 225 3.375 L 225 0 L 228.375 0 L 229.85 0 Z M 297.3 5.05 L 297.3 6.75 L 297.15 6.75 L 294 6.75 L 294 5.05 A 1.678 1.678 0 0 0 293.573 3.928 A 2.152 2.152 0 0 0 293.537 3.888 A 1.528 1.528 0 0 0 292.535 3.388 A 2.14 2.14 0 0 0 292.3 3.375 A 1.329 1.329 0 0 0 291.733 3.493 Q 291.458 3.621 291.25 3.888 Q 290.85 4.4 290.85 5.05 L 290.85 6.75 L 290.85 6.975 L 290.85 9.675 L 290.85 10.125 L 290.85 11.575 Q 290.85 12.35 291.25 12.775 A 1.332 1.332 0 0 0 292.121 13.192 A 1.837 1.837 0 0 0 292.3 13.2 A 2.289 2.289 0 0 0 292.827 13.143 A 1.559 1.559 0 0 0 293.537 12.775 A 1.384 1.384 0 0 0 293.95 12.046 A 2.101 2.101 0 0 0 294 11.575 L 294 10.125 L 297.15 10.125 L 297.3 10.125 L 297.3 11.575 Q 297.3 12.025 297.225 12.475 Q 297.153 12.904 297.15 13.175 A 2.105 2.105 0 0 0 297.15 13.2 A 6.902 6.902 0 0 1 296.289 14.626 A 6.192 6.192 0 0 1 295.875 15.1 A 5.398 5.398 0 0 1 294.153 16.285 A 6.228 6.228 0 0 1 294 16.35 A 2.629 2.629 0 0 0 293.675 16.372 Q 293.508 16.392 293.325 16.433 A 4.789 4.789 0 0 0 293.2 16.463 Q 292.75 16.575 292.3 16.575 Q 291.975 16.575 291.55 16.463 Q 291.125 16.35 290.85 16.35 Q 289.725 15.9 288.875 15.1 Q 288.025 14.3 287.675 13.2 A 1.238 1.238 0 0 1 287.574 12.948 Q 287.537 12.82 287.518 12.669 A 2.661 2.661 0 0 1 287.5 12.475 Q 287.475 12.025 287.475 11.575 L 287.475 10.125 L 287.475 6.75 L 287.475 5.05 A 17.831 17.831 0 0 1 287.481 4.569 A 14.014 14.014 0 0 1 287.5 4.125 A 2.372 2.372 0 0 1 287.556 3.725 A 1.819 1.819 0 0 1 287.675 3.375 Q 288.025 2.25 288.875 1.513 Q 289.725 0.775 290.85 0.45 A 2.329 2.329 0 0 1 291.109 0.309 Q 291.304 0.217 291.55 0.138 A 3.322 3.322 0 0 1 291.867 0.051 Q 292.025 0.017 292.166 0.006 A 1.687 1.687 0 0 1 292.3 0 Q 292.75 0 293.2 0.138 Q 293.65 0.275 294 0.45 Q 295.1 0.775 295.875 1.513 A 5.356 5.356 0 0 1 296.774 2.647 A 6.729 6.729 0 0 1 297.15 3.375 Q 297.15 3.7 297.225 4.125 A 4.89 4.89 0 0 1 297.289 4.671 A 6.106 6.106 0 0 1 297.3 5.05 Z M 4.85 0 L 6.525 0 L 9.825 0 L 9.825 3.375 L 9.675 3.375 L 6.525 3.375 L 6.525 5.05 L 6.525 6.75 L 6.525 6.975 L 6.525 9.675 L 6.525 10.125 L 6.525 11.575 L 6.525 13.2 L 9.675 13.2 L 9.825 13.2 L 9.825 16.575 L 6.525 16.575 L 4.85 16.575 L 3.15 16.575 L 0 16.575 L 0 13.2 L 0.225 13.2 L 3.15 13.2 L 3.15 11.575 L 3.15 10.125 L 3.15 9.675 L 3.15 6.975 L 3.15 6.75 L 3.15 5.05 L 3.15 3.375 L 0.225 3.375 L 0 3.375 L 0 0 L 3.15 0 L 4.85 0 Z M 104.85 0 L 106.525 0 L 109.825 0 L 109.825 3.375 L 109.675 3.375 L 106.525 3.375 L 106.525 5.05 L 106.525 6.75 L 106.525 6.975 L 106.525 9.675 L 106.525 10.125 L 106.525 11.575 L 106.525 13.2 L 109.675 13.2 L 109.825 13.2 L 109.825 16.575 L 106.525 16.575 L 104.85 16.575 L 103.15 16.575 L 100 16.575 L 100 13.2 L 100.225 13.2 L 103.15 13.2 L 103.15 11.575 L 103.15 10.125 L 103.15 9.675 L 103.15 6.975 L 103.15 6.75 L 103.15 5.05 L 103.15 3.375 L 100.225 3.375 L 100 3.375 L 100 0 L 103.15 0 L 104.85 0 Z M 60.025 11.575 L 60.025 13.2 L 60.025 16.575 L 56.65 16.575 L 56.65 16.35 L 56.65 13.2 L 56.65 11.575 A 1.566 1.566 0 0 0 56.575 11.08 A 1.292 1.292 0 0 0 56.212 10.525 Q 55.844 10.188 55.2 10.135 A 3.047 3.047 0 0 0 54.95 10.125 L 53.5 10.125 L 53.5 11.575 L 53.5 13.2 L 53.5 16.35 L 53.5 16.575 L 50.2 16.575 L 50.2 13.2 L 50.2 11.575 L 50.2 10.125 L 50.2 6.75 L 50.2 5.05 L 50.2 3.375 L 50.2 0 L 53.5 0 L 54.95 0 Q 55.45 0 55.913 0.138 A 4.291 4.291 0 0 1 56.221 0.241 Q 56.474 0.338 56.65 0.45 A 4.625 4.625 0 0 1 59.582 2.897 A 6.219 6.219 0 0 1 59.8 3.375 Q 59.8 3.7 59.913 4.125 A 3.375 3.375 0 0 1 60.012 4.715 A 4.12 4.12 0 0 1 60.025 5.05 A 3.135 3.135 0 0 1 59.987 5.545 A 2.546 2.546 0 0 1 59.913 5.875 A 2.527 2.527 0 0 0 59.83 6.268 Q 59.8 6.492 59.8 6.75 Q 59.625 7.175 59.363 7.55 Q 59.1 7.925 58.775 8.425 A 2.293 2.293 0 0 1 59.094 8.758 Q 59.235 8.939 59.363 9.163 Q 59.625 9.625 59.8 10.125 A 1.768 1.768 0 0 0 59.813 10.332 Q 59.826 10.439 59.851 10.562 A 4.493 4.493 0 0 0 59.913 10.825 A 3.894 3.894 0 0 1 59.985 11.154 Q 60.013 11.311 60.021 11.451 A 2.046 2.046 0 0 1 60.025 11.575 Z M 84.95 5.05 L 84.95 6.75 L 84.95 10.125 L 84.95 11.575 L 84.95 13.2 L 84.95 16.575 L 81.575 16.575 L 81.575 16.35 L 81.575 13.2 L 81.575 11.575 L 81.575 10.125 L 79.9 10.125 L 78.275 10.125 L 78.275 11.575 L 78.275 13.2 L 78.275 16.35 L 78.275 16.575 L 75.125 16.575 L 75.125 13.2 L 75.125 11.575 L 75.125 10.125 L 75.125 6.75 L 75.125 5.05 Q 75.125 4.55 75.138 4.125 Q 75.15 3.7 75.275 3.375 A 4.191 4.191 0 0 1 75.981 2.012 A 3.934 3.934 0 0 1 76.45 1.513 Q 77.275 0.775 78.275 0.45 Q 78.725 0.275 79.175 0.138 A 4.461 4.461 0 0 1 79.436 0.066 Q 79.71 0 79.9 0 A 3.264 3.264 0 0 1 80.751 0.109 A 3.04 3.04 0 0 1 80.85 0.138 A 4.21 4.21 0 0 1 81.16 0.245 Q 81.304 0.301 81.423 0.363 A 1.965 1.965 0 0 1 81.575 0.45 Q 83.85 1.1 84.725 3.375 Q 84.725 3.7 84.838 4.125 A 3.375 3.375 0 0 1 84.937 4.715 A 4.12 4.12 0 0 1 84.95 5.05 Z M 147.45 5.05 L 147.45 6.75 L 147.45 10.125 L 147.45 11.575 L 147.45 13.2 L 147.45 16.575 L 144.075 16.575 L 144.075 16.35 L 144.075 13.2 L 144.075 11.575 L 144.075 10.125 L 142.4 10.125 L 140.775 10.125 L 140.775 11.575 L 140.775 13.2 L 140.775 16.35 L 140.775 16.575 L 137.625 16.575 L 137.625 13.2 L 137.625 11.575 L 137.625 10.125 L 137.625 6.75 L 137.625 5.05 Q 137.625 4.55 137.638 4.125 Q 137.65 3.7 137.775 3.375 A 4.191 4.191 0 0 1 138.481 2.012 A 3.934 3.934 0 0 1 138.95 1.513 Q 139.775 0.775 140.775 0.45 Q 141.225 0.275 141.675 0.138 A 4.461 4.461 0 0 1 141.936 0.066 Q 142.21 0 142.4 0 A 3.264 3.264 0 0 1 143.251 0.109 A 3.04 3.04 0 0 1 143.35 0.138 A 4.21 4.21 0 0 1 143.66 0.245 Q 143.804 0.301 143.923 0.363 A 1.965 1.965 0 0 1 144.075 0.45 Q 146.35 1.1 147.225 3.375 Q 147.225 3.7 147.338 4.125 A 3.375 3.375 0 0 1 147.437 4.715 A 4.12 4.12 0 0 1 147.45 5.05 Z M 156.6 13.2 L 159.75 13.2 L 159.975 13.2 L 159.975 16.575 L 156.6 16.575 L 154.925 16.575 L 153.45 16.575 L 150.15 16.575 L 150.15 13.2 L 150.15 11.575 L 150.15 10.125 L 150.15 6.75 L 150.15 5.05 L 150.15 3.375 L 150.15 0 L 153.45 0 L 153.45 0.45 L 153.45 3.375 L 153.45 5.05 L 153.45 6.75 L 153.45 6.975 L 153.45 9.675 L 153.45 10.125 L 153.45 11.575 L 153.45 13.2 L 154.925 13.2 L 156.6 13.2 Z M 306.6 13.2 L 309.75 13.2 L 309.975 13.2 L 309.975 16.575 L 306.6 16.575 L 304.925 16.575 L 303.45 16.575 L 300.15 16.575 L 300.15 13.2 L 300.15 11.575 L 300.15 10.125 L 300.15 6.75 L 300.15 5.05 L 300.15 3.375 L 300.15 0 L 303.45 0 L 303.45 0.45 L 303.45 3.375 L 303.45 5.05 L 303.45 6.75 L 303.45 6.975 L 303.45 9.675 L 303.45 10.125 L 303.45 11.575 L 303.45 13.2 L 304.925 13.2 L 306.6 13.2 Z M 29.775 0.45 L 31.45 0.45 L 34.75 0.45 L 34.75 3.6 L 34.6 3.6 L 31.45 3.6 L 31.45 5.275 L 31.45 6.975 L 31.45 7.325 L 31.45 10.125 L 31.45 10.25 L 31.45 11.95 L 31.45 13.625 L 31.45 16.575 L 31.45 16.775 L 29.775 16.775 L 28.3 16.775 L 28.3 16.575 L 28.3 13.625 L 28.3 11.95 L 28.3 10.25 L 28.3 10.125 L 28.3 7.325 L 28.3 6.975 L 28.3 5.275 L 28.3 3.6 L 25.15 3.6 L 24.925 3.6 L 24.925 0.45 L 28.3 0.45 L 29.775 0.45 Z M 92.275 0.45 L 93.95 0.45 L 97.25 0.45 L 97.25 3.6 L 97.1 3.6 L 93.95 3.6 L 93.95 5.275 L 93.95 6.975 L 93.95 7.325 L 93.95 10.125 L 93.95 10.25 L 93.95 11.95 L 93.95 13.625 L 93.95 16.575 L 93.95 16.775 L 92.275 16.775 L 90.8 16.775 L 90.8 16.575 L 90.8 13.625 L 90.8 11.95 L 90.8 10.25 L 90.8 10.125 L 90.8 7.325 L 90.8 6.975 L 90.8 5.275 L 90.8 3.6 L 87.65 3.6 L 87.425 3.6 L 87.425 0.45 L 90.8 0.45 L 92.275 0.45 Z M 192.275 0.45 L 193.95 0.45 L 197.25 0.45 L 197.25 3.6 L 197.1 3.6 L 193.95 3.6 L 193.95 5.275 L 193.95 6.975 L 193.95 7.325 L 193.95 10.125 L 193.95 10.25 L 193.95 11.95 L 193.95 13.625 L 193.95 16.575 L 193.95 16.775 L 192.275 16.775 L 190.8 16.775 L 190.8 16.575 L 190.8 13.625 L 190.8 11.95 L 190.8 10.25 L 190.8 10.125 L 190.8 7.325 L 190.8 6.975 L 190.8 5.275 L 190.8 3.6 L 187.65 3.6 L 187.425 3.6 L 187.425 0.45 L 190.8 0.45 L 192.275 0.45 Z M 254.775 0.45 L 256.45 0.45 L 259.75 0.45 L 259.75 3.6 L 259.6 3.6 L 256.45 3.6 L 256.45 5.275 L 256.45 6.975 L 256.45 7.325 L 256.45 10.125 L 256.45 10.25 L 256.45 11.95 L 256.45 13.625 L 256.45 16.575 L 256.45 16.775 L 254.775 16.775 L 253.3 16.775 L 253.3 16.575 L 253.3 13.625 L 253.3 11.95 L 253.3 10.25 L 253.3 10.125 L 253.3 7.325 L 253.3 6.975 L 253.3 5.275 L 253.3 3.6 L 250.15 3.6 L 249.925 3.6 L 249.925 0.45 L 253.3 0.45 L 254.775 0.45 Z M 329.975 16.575 L 328.525 16.575 L 325.15 16.575 L 325.15 13.2 L 325.15 11.575 L 325.15 10.125 L 325.15 6.75 L 325.15 5.05 L 325.15 3.375 L 325.15 0 L 328.525 0 L 329.975 0 Q 330.425 0 330.875 0.138 A 4.21 4.21 0 0 1 331.185 0.245 Q 331.329 0.301 331.448 0.363 A 1.965 1.965 0 0 1 331.6 0.45 Q 333.875 1.1 334.75 3.375 Q 334.75 3.7 334.862 4.125 A 3.375 3.375 0 0 1 334.962 4.715 A 4.12 4.12 0 0 1 334.975 5.05 A 3.135 3.135 0 0 1 334.937 5.545 A 2.546 2.546 0 0 1 334.863 5.875 A 2.527 2.527 0 0 0 334.78 6.268 Q 334.75 6.492 334.75 6.75 Q 334.625 7.175 334.35 7.55 A 39.198 39.198 0 0 0 334.095 7.902 Q 333.922 8.144 333.725 8.425 A 2.327 2.327 0 0 1 334.095 8.794 A 3.122 3.122 0 0 1 334.35 9.163 Q 334.625 9.625 334.75 10.125 A 1.768 1.768 0 0 0 334.763 10.332 Q 334.776 10.439 334.801 10.562 A 4.493 4.493 0 0 0 334.863 10.825 A 3.894 3.894 0 0 1 334.935 11.154 Q 334.963 11.311 334.971 11.451 A 2.046 2.046 0 0 1 334.975 11.575 Q 334.975 12.025 334.862 12.475 Q 334.757 12.898 334.75 13.166 A 1.424 1.424 0 0 0 334.75 13.2 A 5.414 5.414 0 0 1 331.75 16.287 A 6.855 6.855 0 0 1 331.6 16.35 A 1.793 1.793 0 0 0 331.411 16.361 Q 331.184 16.385 330.875 16.463 Q 330.425 16.575 329.975 16.575 Z M 222.5 5.05 L 222.5 6.75 L 222.5 10.125 L 222.5 11.575 Q 222.5 12.025 222.388 12.475 Q 222.282 12.898 222.275 13.166 A 1.424 1.424 0 0 0 222.275 13.2 A 7.091 7.091 0 0 1 221.442 14.599 A 6.274 6.274 0 0 1 221.013 15.1 A 5.122 5.122 0 0 1 219.534 16.169 A 6.101 6.101 0 0 1 219.125 16.35 Q 218.8 16.35 218.375 16.463 A 3.375 3.375 0 0 1 217.785 16.562 A 4.12 4.12 0 0 1 217.45 16.575 L 215.975 16.575 L 212.6 16.575 L 212.6 13.2 L 212.6 11.575 L 212.6 10.125 L 212.6 6.75 L 212.6 5.05 L 212.6 3.375 L 212.6 0 L 215.975 0 L 217.45 0 A 3.193 3.193 0 0 1 218.046 0.054 A 2.708 2.708 0 0 1 218.375 0.138 Q 218.8 0.275 219.125 0.45 A 4.741 4.741 0 0 1 220.331 0.98 A 4.121 4.121 0 0 1 221.013 1.513 A 5.423 5.423 0 0 1 221.891 2.632 A 6.89 6.89 0 0 1 222.275 3.375 Q 222.275 3.7 222.388 4.125 A 3.375 3.375 0 0 1 222.487 4.715 A 4.12 4.12 0 0 1 222.5 5.05 Z M 122.45 5.05 L 122.45 6.75 L 122.45 10.125 L 122.45 11.575 Q 122.45 12.025 122.35 12.475 Q 122.255 12.904 122.25 13.175 A 1.58 1.58 0 0 0 122.25 13.2 A 6.902 6.902 0 0 1 121.389 14.626 A 6.192 6.192 0 0 1 120.975 15.1 A 5.398 5.398 0 0 1 119.253 16.285 A 6.228 6.228 0 0 1 119.1 16.35 Q 118.75 16.35 118.325 16.463 A 3.375 3.375 0 0 1 117.735 16.562 A 4.12 4.12 0 0 1 117.4 16.575 Q 117.075 16.575 116.675 16.463 Q 116.275 16.35 115.925 16.35 Q 114.825 15.9 113.975 15.1 Q 113.125 14.3 112.775 13.2 A 1.238 1.238 0 0 1 112.674 12.948 Q 112.637 12.82 112.618 12.669 A 2.661 2.661 0 0 1 112.6 12.475 Q 112.575 12.025 112.575 11.575 L 112.575 10.125 L 112.575 6.75 L 112.575 5.05 A 17.831 17.831 0 0 1 112.581 4.569 A 14.014 14.014 0 0 1 112.6 4.125 Q 112.625 3.7 112.775 3.375 Q 113.125 2.25 113.975 1.513 Q 114.825 0.775 115.925 0.45 A 6.001 6.001 0 0 1 116.527 0.19 A 6.76 6.76 0 0 1 116.675 0.138 A 2.847 2.847 0 0 1 116.999 0.046 Q 117.212 0 117.4 0 A 3.193 3.193 0 0 1 117.996 0.054 A 2.708 2.708 0 0 1 118.325 0.138 A 5.991 5.991 0 0 1 118.826 0.324 A 4.912 4.912 0 0 1 119.1 0.45 Q 120.2 0.775 120.975 1.513 A 5.356 5.356 0 0 1 121.874 2.647 A 6.729 6.729 0 0 1 122.25 3.375 A 2.582 2.582 0 0 0 122.269 3.678 Q 122.287 3.832 122.323 4.004 A 4.821 4.821 0 0 0 122.35 4.125 A 3.739 3.739 0 0 1 122.436 4.686 A 4.601 4.601 0 0 1 122.45 5.05 Z M 215.975 13.2 L 217.45 13.2 A 2.282 2.282 0 0 0 217.96 13.146 Q 218.385 13.049 218.675 12.775 A 1.385 1.385 0 0 0 219.069 12.077 Q 219.123 11.855 219.125 11.592 A 2.646 2.646 0 0 0 219.125 11.575 L 219.125 10.125 L 219.125 9.675 L 219.125 6.975 L 219.125 6.75 L 219.125 5.05 A 1.713 1.713 0 0 0 218.677 3.89 A 2.418 2.418 0 0 0 218.675 3.888 Q 218.225 3.375 217.45 3.375 L 215.975 3.375 L 215.975 5.05 L 215.975 6.75 L 215.975 6.975 L 215.975 9.675 L 215.975 10.125 L 215.975 11.575 L 215.975 13.2 Z M 119.1 11.575 L 119.1 10.125 L 119.1 9.675 L 119.1 6.975 L 119.1 6.75 L 119.1 5.05 A 1.678 1.678 0 0 0 118.673 3.928 A 2.152 2.152 0 0 0 118.637 3.888 A 1.528 1.528 0 0 0 117.635 3.388 A 2.14 2.14 0 0 0 117.4 3.375 A 1.332 1.332 0 0 0 116.776 3.52 A 1.382 1.382 0 0 0 116.338 3.888 Q 115.925 4.4 115.925 5.05 L 115.925 6.75 L 115.925 6.975 L 115.925 9.675 L 115.925 10.125 L 115.925 11.575 Q 115.925 12.171 116.169 12.56 A 1.298 1.298 0 0 0 116.338 12.775 A 1.383 1.383 0 0 0 117.256 13.195 A 1.872 1.872 0 0 0 117.4 13.2 A 2.289 2.289 0 0 0 117.927 13.143 A 1.559 1.559 0 0 0 118.637 12.775 A 1.384 1.384 0 0 0 119.05 12.046 A 2.101 2.101 0 0 0 119.1 11.575 Z M 78.275 5.05 L 78.275 6.75 L 79.9 6.75 L 81.575 6.75 L 81.575 5.05 Q 81.575 4.4 81.15 3.888 A 1.368 1.368 0 0 0 80.382 3.426 A 2.13 2.13 0 0 0 79.9 3.375 A 1.388 1.388 0 0 0 79.414 3.465 A 1.662 1.662 0 0 0 79.3 3.513 Q 79 3.65 78.775 3.888 Q 78.55 4.125 78.413 4.425 Q 78.275 4.725 78.275 5.05 Z M 140.775 5.05 L 140.775 6.75 L 142.4 6.75 L 144.075 6.75 L 144.075 5.05 Q 144.075 4.4 143.65 3.888 A 1.368 1.368 0 0 0 142.882 3.426 A 2.13 2.13 0 0 0 142.4 3.375 A 1.388 1.388 0 0 0 141.914 3.465 A 1.662 1.662 0 0 0 141.8 3.513 Q 141.5 3.65 141.275 3.888 Q 141.05 4.125 140.913 4.425 Q 140.775 4.725 140.775 5.05 Z M 54.95 3.375 L 53.5 3.375 L 53.5 5.05 L 53.5 6.75 L 54.95 6.75 A 2.017 2.017 0 0 0 55.471 6.687 A 1.394 1.394 0 0 0 56.213 6.213 A 2.026 2.026 0 0 0 56.527 5.689 A 1.7 1.7 0 0 0 56.65 5.05 Q 56.65 4.4 56.213 3.888 A 1.415 1.415 0 0 0 55.417 3.423 A 2.163 2.163 0 0 0 54.95 3.375 Z M 329.975 3.375 L 328.525 3.375 L 328.525 5.05 L 328.525 6.75 L 329.975 6.75 Q 330.75 6.75 331.175 6.213 A 2.021 2.021 0 0 0 331.494 5.653 A 1.743 1.743 0 0 0 331.6 5.05 Q 331.6 4.4 331.175 3.888 A 1.384 1.384 0 0 0 330.297 3.4 A 2.033 2.033 0 0 0 329.975 3.375 Z M 328.525 13.2 L 329.975 13.2 A 2.268 2.268 0 0 0 330.456 13.152 Q 330.893 13.057 331.175 12.775 Q 331.573 12.377 331.598 11.672 A 2.708 2.708 0 0 0 331.6 11.575 A 1.614 1.614 0 0 0 331.53 11.088 A 1.297 1.297 0 0 0 331.175 10.525 A 1.387 1.387 0 0 0 330.605 10.207 Q 330.326 10.125 329.975 10.125 L 328.525 10.125 L 328.525 11.575 L 328.525 13.2 Z" vector-effect="non-scaling-stroke"/></g></svg>