<svg width="774.635" height="36.064" viewBox="0 0 774.635 36.064" xmlns="http://www.w3.org/2000/svg"><g id="svgGroup" stroke-linecap="round" fill-rule="evenodd" font-size="9pt" stroke="#007a33" stroke-width="0.25mm" fill="#007a33" style="stroke:#007a33;stroke-width:0.25mm;fill:#007a33"><path d="M 44.45 33.663 L 46.3 35.913 L 44.45 35.913 L 36.25 35.913 L 22.4 14.613 L 22.4 33.863 L 24.5 35.913 L 22.4 35.913 L 14.45 35.913 L 14.45 3.313 L 22.4 0.613 L 36.25 22.563 L 36.25 4.913 L 34.25 3.013 L 44.45 0.613 L 44.45 33.663 Z M 166.4 33.663 L 168.25 35.913 L 166.4 35.913 L 158.2 35.913 L 144.35 14.613 L 144.35 33.863 L 146.45 35.913 L 144.35 35.913 L 136.4 35.913 L 136.4 3.313 L 144.35 0.613 L 158.2 22.563 L 158.2 4.913 L 156.2 3.013 L 166.4 0.613 L 166.4 33.663 Z M 338.95 33.663 L 340.8 35.913 L 338.95 35.913 L 330.75 35.913 L 316.9 14.613 L 316.9 33.863 L 319 35.913 L 316.9 35.913 L 308.95 35.913 L 308.95 3.313 L 316.9 0.613 L 330.75 22.563 L 330.75 4.913 L 328.75 3.013 L 338.95 0.613 L 338.95 33.663 Z M 574.8 33.663 L 576.65 35.913 L 574.8 35.913 L 566.6 35.913 L 552.75 14.613 L 552.75 33.863 L 554.85 35.913 L 552.75 35.913 L 544.8 35.913 L 544.8 3.313 L 552.75 0.613 L 566.6 22.563 L 566.6 4.913 L 564.6 3.013 L 574.8 0.613 L 574.8 33.663 Z M 88.05 29.063 L 102.8 29.063 L 105.2 35.963 L 78.15 35.963 L 80.1 33.213 L 80.1 3.113 L 78.15 0.713 L 105.2 0.713 L 102.8 7.613 L 88.05 7.613 L 88.05 15.113 L 100.15 15.113 L 98.25 21.113 L 88.05 21.113 L 88.05 29.063 Z M 525.05 29.063 L 539.8 29.063 L 542.2 35.963 L 515.15 35.963 L 517.1 33.213 L 517.1 3.113 L 515.15 0.713 L 542.2 0.713 L 539.8 7.613 L 525.05 7.613 L 525.05 15.113 L 537.15 15.113 L 535.25 21.113 L 525.05 21.113 L 525.05 29.063 Z M 400.7 35.813 L 399.8 35.813 L 399.4 35.813 A 1.906 1.906 0 0 1 399.202 35.802 Q 399.083 35.79 398.95 35.763 A 161.033 161.033 0 0 0 398.026 35.663 Q 397.55 35.613 397.1 35.513 A 9.578 9.578 0 0 1 395.971 35.267 A 8.029 8.029 0 0 1 395.35 35.063 Q 394.45 34.763 393.5 34.313 Q 393.05 34.063 392.625 33.813 Q 392.2 33.563 391.8 33.263 Q 391.05 32.713 390.3 31.963 Q 389.675 31.339 389.259 30.783 A 7.134 7.134 0 0 1 389.1 30.563 Q 388.9 30.313 388.725 30.038 Q 388.55 29.763 388.4 29.463 L 396.25 23.863 L 396 26.763 Q 397.15 27.913 398.675 28.513 A 7.328 7.328 0 0 0 401.381 29.028 A 7.749 7.749 0 0 0 401.85 29.013 A 13.847 13.847 0 0 0 402.976 28.861 A 10.971 10.971 0 0 0 403.775 28.688 A 3.441 3.441 0 0 0 404.788 28.236 A 4.71 4.71 0 0 0 405.45 27.713 A 3.031 3.031 0 0 0 405.982 27.157 A 2.196 2.196 0 0 0 406.4 26.088 Q 406.5 25.163 405.8 24.313 A 3.753 3.753 0 0 0 405.33 23.883 Q 405.076 23.685 404.76 23.494 A 8.047 8.047 0 0 0 404.35 23.263 Q 403.4 22.763 402.35 22.388 A 42.405 42.405 0 0 0 400.551 21.79 A 38.403 38.403 0 0 0 400.3 21.713 A 97.731 97.731 0 0 1 399.825 21.57 Q 399.245 21.392 398.831 21.257 A 27.982 27.982 0 0 1 398.7 21.213 Q 396.8 20.663 395 20.038 A 9.049 9.049 0 0 1 392.39 18.598 A 10.967 10.967 0 0 1 391.65 17.963 Q 391.556 17.916 391.463 17.826 A 1.106 1.106 0 0 1 391.45 17.813 Q 391.25 17.663 391.1 17.488 A 2.134 2.134 0 0 0 390.823 17.22 A 2.432 2.432 0 0 0 390.75 17.163 Q 390.6 16.963 390.425 16.788 Q 390.25 16.613 390.1 16.413 Q 389.45 15.563 389 14.563 Q 388.75 14.063 388.6 13.538 Q 388.45 13.013 388.35 12.463 A 4.57 4.57 0 0 1 388.244 11.889 A 3.989 3.989 0 0 1 388.225 11.688 A 13.136 13.136 0 0 0 388.173 11.112 A 14.589 14.589 0 0 0 388.15 10.913 L 388.15 10.288 A 4.625 4.625 0 0 1 388.178 9.787 A 5.26 5.26 0 0 1 388.2 9.613 A 4.863 4.863 0 0 0 388.265 9.191 A 5.488 5.488 0 0 0 388.275 9.088 A 2.365 2.365 0 0 1 388.336 8.735 A 2.91 2.91 0 0 1 388.4 8.513 A 2.501 2.501 0 0 0 388.513 8.15 A 3.016 3.016 0 0 0 388.55 7.963 A 2.843 2.843 0 0 1 388.632 7.608 A 2.371 2.371 0 0 1 388.7 7.413 Q 389.2 6.263 389.75 5.363 Q 390 5.063 390.2 4.763 Q 390.4 4.463 390.65 4.213 Q 391.35 3.413 392.2 2.813 L 392.3 2.713 Q 392.35 2.713 392.375 2.688 A 0.078 0.078 0 0 1 392.406 2.67 Q 392.419 2.665 392.434 2.664 A 0.176 0.176 0 0 1 392.45 2.663 A 8.158 8.158 0 0 1 393.337 2.088 Q 393.825 1.813 394.4 1.563 A 56.465 56.465 0 0 1 394.788 1.42 A 45.822 45.822 0 0 1 395.15 1.288 A 7.658 7.658 0 0 1 395.679 1.122 A 8.947 8.947 0 0 1 395.9 1.063 Q 396.8 0.763 397.75 0.613 A 5.666 5.666 0 0 1 398.451 0.502 A 5.046 5.046 0 0 1 398.625 0.488 A 20.113 20.113 0 0 0 399.069 0.457 A 25.784 25.784 0 0 0 399.55 0.413 Q 400 0.363 400.425 0.338 A 14.013 14.013 0 0 1 400.869 0.32 A 17.831 17.831 0 0 1 401.35 0.313 L 402.2 0.313 Q 402.45 0.313 402.65 0.338 Q 402.848 0.363 403.096 0.363 A 3.172 3.172 0 0 0 403.1 0.363 L 404 0.463 Q 404.45 0.513 404.9 0.613 Q 405.8 0.763 406.7 1.063 Q 407.6 1.363 408.55 1.813 Q 409.35 2.213 410.25 2.863 Q 411 3.413 411.75 4.163 Q 412.375 4.788 412.791 5.343 A 7.134 7.134 0 0 1 412.95 5.563 Q 413.3 6.063 413.65 6.663 L 405.55 12.213 L 406 9.313 Q 404.85 8.163 403.325 7.613 Q 401.8 7.063 400.2 7.163 A 9.324 9.324 0 0 0 399.074 7.283 A 7.508 7.508 0 0 0 398.275 7.463 A 4.266 4.266 0 0 0 397.272 7.903 A 5.755 5.755 0 0 0 396.55 8.413 A 2.861 2.861 0 0 0 395.984 9.074 A 2.349 2.349 0 0 0 395.65 10.063 Q 395.55 11.013 396.25 11.863 A 3.688 3.688 0 0 0 396.726 12.298 Q 397.126 12.606 397.675 12.888 A 16.16 16.16 0 0 0 399.389 13.643 A 17.998 17.998 0 0 0 399.65 13.738 Q 400.7 14.113 401.725 14.413 A 83.217 83.217 0 0 1 402.211 14.557 Q 402.685 14.699 403.045 14.814 A 25.502 25.502 0 0 1 403.35 14.913 A 194.795 194.795 0 0 1 406.579 15.963 A 177.486 177.486 0 0 1 407.025 16.113 A 8.97 8.97 0 0 1 409.331 17.303 A 11.33 11.33 0 0 1 410.4 18.163 Q 411.367 18.985 411.983 19.807 A 7.451 7.451 0 0 1 412.025 19.863 Q 412.65 20.713 413.025 21.513 Q 413.4 22.313 413.55 23.038 Q 413.653 23.537 413.733 23.929 A 130.002 130.002 0 0 1 413.8 24.263 Q 413.85 24.513 413.875 24.763 A 4.859 4.859 0 0 1 413.894 25.026 A 6.339 6.339 0 0 1 413.9 25.313 Q 413.9 25.563 413.875 25.863 A 9.91 9.91 0 0 1 413.844 26.176 A 12.609 12.609 0 0 1 413.8 26.513 A 3.263 3.263 0 0 1 413.764 27.002 A 2.951 2.951 0 0 1 413.75 27.088 Q 413.7 27.363 413.65 27.613 A 7.577 7.577 0 0 1 413.551 28.022 Q 413.439 28.432 413.304 28.704 A 2.27 2.27 0 0 1 413.3 28.713 A 8.259 8.259 0 0 1 412.614 30.207 A 7.25 7.25 0 0 1 412.25 30.763 A 6.729 6.729 0 0 1 411.523 31.775 A 7.52 7.52 0 0 1 411.4 31.913 Q 410.7 32.713 409.8 33.363 Q 409.77 33.363 409.758 33.372 A 0.019 0.019 0 0 0 409.75 33.388 Q 409.75 33.411 409.711 33.413 A 0.168 0.168 0 0 1 409.7 33.413 Q 409.67 33.413 409.658 33.422 A 0.019 0.019 0 0 0 409.65 33.438 Q 409.65 33.461 409.611 33.463 A 0.168 0.168 0 0 1 409.6 33.463 Q 409.15 33.813 408.65 34.063 Q 408.15 34.313 407.6 34.563 Q 406.8 34.913 406.15 35.113 Q 405.7 35.213 405.225 35.313 Q 404.75 35.413 404.3 35.513 Q 403.85 35.613 403.4 35.663 L 402.5 35.763 Q 402.05 35.813 401.6 35.813 L 400.7 35.813 Z M 589.65 35.813 L 588.75 35.813 L 588.35 35.813 A 1.906 1.906 0 0 1 588.152 35.802 Q 588.033 35.79 587.9 35.763 A 161.033 161.033 0 0 0 586.976 35.663 Q 586.5 35.613 586.05 35.513 A 9.578 9.578 0 0 1 584.921 35.267 A 8.029 8.029 0 0 1 584.3 35.063 Q 583.4 34.763 582.45 34.313 Q 582 34.063 581.575 33.813 Q 581.15 33.563 580.75 33.263 Q 580 32.713 579.25 31.963 Q 578.625 31.339 578.209 30.783 A 7.134 7.134 0 0 1 578.05 30.563 Q 577.85 30.313 577.675 30.038 Q 577.5 29.763 577.35 29.463 L 585.2 23.863 L 584.95 26.763 Q 586.1 27.913 587.625 28.513 A 7.328 7.328 0 0 0 590.331 29.028 A 7.749 7.749 0 0 0 590.8 29.013 A 13.847 13.847 0 0 0 591.926 28.861 A 10.971 10.971 0 0 0 592.725 28.688 A 3.441 3.441 0 0 0 593.738 28.236 A 4.71 4.71 0 0 0 594.4 27.713 A 3.031 3.031 0 0 0 594.932 27.157 A 2.196 2.196 0 0 0 595.35 26.088 Q 595.45 25.163 594.75 24.313 A 3.753 3.753 0 0 0 594.28 23.883 Q 594.026 23.685 593.71 23.494 A 8.047 8.047 0 0 0 593.3 23.263 Q 592.35 22.763 591.3 22.388 A 42.405 42.405 0 0 0 589.501 21.79 A 38.403 38.403 0 0 0 589.25 21.713 A 97.731 97.731 0 0 1 588.775 21.57 Q 588.195 21.392 587.781 21.257 A 27.982 27.982 0 0 1 587.65 21.213 Q 585.75 20.663 583.95 20.038 A 9.049 9.049 0 0 1 581.34 18.598 A 10.967 10.967 0 0 1 580.6 17.963 Q 580.506 17.916 580.412 17.826 A 1.106 1.106 0 0 1 580.4 17.813 Q 580.2 17.663 580.05 17.488 A 2.134 2.134 0 0 0 579.773 17.22 A 2.432 2.432 0 0 0 579.7 17.163 Q 579.55 16.963 579.375 16.788 Q 579.2 16.613 579.05 16.413 Q 578.4 15.563 577.95 14.563 Q 577.7 14.063 577.55 13.538 Q 577.4 13.013 577.3 12.463 A 4.57 4.57 0 0 1 577.194 11.889 A 3.989 3.989 0 0 1 577.175 11.688 A 13.136 13.136 0 0 0 577.123 11.112 A 14.589 14.589 0 0 0 577.1 10.913 L 577.1 10.288 A 4.625 4.625 0 0 1 577.128 9.787 A 5.26 5.26 0 0 1 577.15 9.613 A 4.863 4.863 0 0 0 577.215 9.191 A 5.488 5.488 0 0 0 577.225 9.088 A 2.365 2.365 0 0 1 577.286 8.735 A 2.91 2.91 0 0 1 577.35 8.513 A 2.501 2.501 0 0 0 577.463 8.15 A 3.016 3.016 0 0 0 577.5 7.963 A 2.843 2.843 0 0 1 577.582 7.608 A 2.371 2.371 0 0 1 577.65 7.413 Q 578.15 6.263 578.7 5.363 Q 578.95 5.063 579.15 4.763 Q 579.35 4.463 579.6 4.213 Q 580.3 3.413 581.15 2.813 L 581.25 2.713 Q 581.3 2.713 581.325 2.688 A 0.078 0.078 0 0 1 581.356 2.67 Q 581.369 2.665 581.384 2.664 A 0.176 0.176 0 0 1 581.4 2.663 A 8.158 8.158 0 0 1 582.287 2.088 Q 582.775 1.813 583.35 1.563 A 56.465 56.465 0 0 1 583.738 1.42 A 45.822 45.822 0 0 1 584.1 1.288 A 7.658 7.658 0 0 1 584.629 1.122 A 8.947 8.947 0 0 1 584.85 1.063 Q 585.75 0.763 586.7 0.613 A 5.666 5.666 0 0 1 587.401 0.502 A 5.046 5.046 0 0 1 587.575 0.488 A 20.113 20.113 0 0 0 588.019 0.457 A 25.784 25.784 0 0 0 588.5 0.413 Q 588.95 0.363 589.375 0.338 A 14.013 14.013 0 0 1 589.819 0.32 A 17.831 17.831 0 0 1 590.3 0.313 L 591.15 0.313 Q 591.4 0.313 591.6 0.338 Q 591.798 0.363 592.046 0.363 A 3.172 3.172 0 0 0 592.05 0.363 L 592.95 0.463 Q 593.4 0.513 593.85 0.613 Q 594.75 0.763 595.65 1.063 Q 596.55 1.363 597.5 1.813 Q 598.3 2.213 599.2 2.863 Q 599.95 3.413 600.7 4.163 Q 601.325 4.788 601.741 5.343 A 7.134 7.134 0 0 1 601.9 5.563 Q 602.25 6.063 602.6 6.663 L 594.5 12.213 L 594.95 9.313 Q 593.8 8.163 592.275 7.613 Q 590.75 7.063 589.15 7.163 A 9.324 9.324 0 0 0 588.024 7.283 A 7.508 7.508 0 0 0 587.225 7.463 A 4.266 4.266 0 0 0 586.222 7.903 A 5.755 5.755 0 0 0 585.5 8.413 A 2.861 2.861 0 0 0 584.934 9.074 A 2.349 2.349 0 0 0 584.6 10.063 Q 584.5 11.013 585.2 11.863 A 3.688 3.688 0 0 0 585.676 12.298 Q 586.076 12.606 586.625 12.888 A 16.16 16.16 0 0 0 588.339 13.643 A 17.998 17.998 0 0 0 588.6 13.738 Q 589.65 14.113 590.675 14.413 A 83.217 83.217 0 0 1 591.161 14.557 Q 591.635 14.699 591.995 14.814 A 25.502 25.502 0 0 1 592.3 14.913 A 194.795 194.795 0 0 1 595.529 15.963 A 177.486 177.486 0 0 1 595.975 16.113 A 8.97 8.97 0 0 1 598.281 17.303 A 11.33 11.33 0 0 1 599.35 18.163 Q 600.317 18.985 600.933 19.807 A 7.451 7.451 0 0 1 600.975 19.863 Q 601.6 20.713 601.975 21.513 Q 602.35 22.313 602.5 23.038 Q 602.603 23.537 602.683 23.929 A 130.002 130.002 0 0 1 602.75 24.263 Q 602.8 24.513 602.825 24.763 A 4.859 4.859 0 0 1 602.844 25.026 A 6.339 6.339 0 0 1 602.85 25.313 Q 602.85 25.563 602.825 25.863 A 9.91 9.91 0 0 1 602.794 26.176 A 12.609 12.609 0 0 1 602.75 26.513 A 3.263 3.263 0 0 1 602.714 27.002 A 2.951 2.951 0 0 1 602.7 27.088 Q 602.65 27.363 602.6 27.613 A 7.577 7.577 0 0 1 602.501 28.022 Q 602.389 28.432 602.254 28.704 A 2.27 2.27 0 0 1 602.25 28.713 A 8.259 8.259 0 0 1 601.564 30.207 A 7.25 7.25 0 0 1 601.2 30.763 A 6.729 6.729 0 0 1 600.473 31.775 A 7.52 7.52 0 0 1 600.35 31.913 Q 599.65 32.713 598.75 33.363 Q 598.72 33.363 598.708 33.372 A 0.019 0.019 0 0 0 598.7 33.388 Q 598.7 33.411 598.661 33.413 A 0.168 0.168 0 0 1 598.65 33.413 Q 598.62 33.413 598.608 33.422 A 0.019 0.019 0 0 0 598.6 33.438 Q 598.6 33.461 598.561 33.463 A 0.168 0.168 0 0 1 598.55 33.463 Q 598.1 33.813 597.6 34.063 Q 597.1 34.313 596.55 34.563 Q 595.75 34.913 595.1 35.113 Q 594.65 35.213 594.175 35.313 Q 593.7 35.413 593.25 35.513 Q 592.8 35.613 592.35 35.663 L 591.45 35.763 Q 591 35.813 590.55 35.813 L 589.65 35.813 Z M 468.6 3.263 L 478.2 0.613 L 478.2 22.413 Q 478 25.513 476.65 28.038 Q 475.3 30.563 473.225 32.338 Q 471.15 34.113 468.525 35.088 Q 465.9 36.063 463.2 36.063 Q 460.5 36.063 457.875 35.113 Q 455.25 34.163 453.175 32.388 Q 451.1 30.613 449.725 28.088 A 13.122 13.122 0 0 1 448.266 23.573 A 15.681 15.681 0 0 1 448.15 22.413 L 448.15 5.213 L 445.95 3.713 L 455.6 0.613 L 455.6 20.613 L 455.6 20.913 A 2.988 2.988 0 0 0 455.745 21.849 A 2.838 2.838 0 0 0 455.75 21.863 Q 455.8 22.113 455.85 22.338 A 2.81 2.81 0 0 0 455.927 22.614 A 3.551 3.551 0 0 0 456 22.813 Q 456.1 23.063 456.2 23.263 Q 456.3 23.463 456.4 23.713 Q 456.75 24.263 457.1 24.663 Q 457.35 24.963 457.65 25.238 A 6.849 6.849 0 0 0 458.278 25.748 A 7.472 7.472 0 0 0 458.3 25.763 A 2.113 2.113 0 0 0 458.841 26.159 A 2.02 2.02 0 0 0 458.85 26.163 A 5.504 5.504 0 0 1 459.366 26.458 A 6.149 6.149 0 0 1 459.45 26.513 A 4.308 4.308 0 0 0 460.236 26.842 A 5.308 5.308 0 0 0 460.7 26.963 Q 461.35 27.213 462.05 27.263 A 7.804 7.804 0 0 0 462.989 27.342 Q 463.197 27.346 463.4 27.338 Q 464.05 27.313 464.7 27.213 Q 465.05 27.113 465.375 27.038 A 6.838 6.838 0 0 0 465.999 26.864 Q 467.2 26.413 468.25 25.663 Q 468.7 25.263 469.1 24.813 Q 469.322 24.591 469.435 24.451 A 1.252 1.252 0 0 0 469.5 24.364 A 4.718 4.718 0 0 0 469.769 23.992 A 4.104 4.104 0 0 0 469.85 23.863 L 470.15 23.363 Q 470.3 23.013 470.425 22.638 Q 470.55 22.263 470.65 21.863 Q 470.696 21.771 470.7 21.506 A 3.346 3.346 0 0 0 470.7 21.463 L 470.55 4.813 L 468.6 3.263 Z M 733.6 3.263 L 743.2 0.613 L 743.2 22.413 Q 743 25.513 741.65 28.038 Q 740.3 30.563 738.225 32.338 Q 736.15 34.113 733.525 35.088 Q 730.9 36.063 728.2 36.063 Q 725.5 36.063 722.875 35.113 Q 720.25 34.163 718.175 32.388 Q 716.1 30.613 714.725 28.088 A 13.122 13.122 0 0 1 713.266 23.573 A 15.681 15.681 0 0 1 713.15 22.413 L 713.15 5.213 L 710.95 3.713 L 720.6 0.613 L 720.6 20.613 L 720.6 20.913 A 2.988 2.988 0 0 0 720.745 21.849 A 2.838 2.838 0 0 0 720.75 21.863 Q 720.8 22.113 720.85 22.338 A 2.81 2.81 0 0 0 720.927 22.614 A 3.551 3.551 0 0 0 721 22.813 Q 721.1 23.063 721.2 23.263 Q 721.3 23.463 721.4 23.713 Q 721.75 24.263 722.1 24.663 Q 722.35 24.963 722.65 25.238 A 6.849 6.849 0 0 0 723.278 25.748 A 7.472 7.472 0 0 0 723.3 25.763 A 2.113 2.113 0 0 0 723.841 26.159 A 2.02 2.02 0 0 0 723.85 26.163 A 5.504 5.504 0 0 1 724.366 26.458 A 6.149 6.149 0 0 1 724.45 26.513 A 4.308 4.308 0 0 0 725.236 26.842 A 5.308 5.308 0 0 0 725.7 26.963 Q 726.35 27.213 727.05 27.263 A 7.804 7.804 0 0 0 727.989 27.342 Q 728.197 27.346 728.4 27.338 Q 729.05 27.313 729.7 27.213 Q 730.05 27.113 730.375 27.038 A 6.838 6.838 0 0 0 730.999 26.864 Q 732.2 26.413 733.25 25.663 Q 733.7 25.263 734.1 24.813 Q 734.322 24.591 734.435 24.451 A 1.252 1.252 0 0 0 734.5 24.364 A 4.718 4.718 0 0 0 734.769 23.992 A 4.104 4.104 0 0 0 734.85 23.863 L 735.15 23.363 Q 735.3 23.013 735.425 22.638 Q 735.55 22.263 735.65 21.863 Q 735.696 21.771 735.7 21.506 A 3.346 3.346 0 0 0 735.7 21.463 L 735.55 4.813 L 733.6 3.263 Z M 125.2 20.813 L 135.1 35.713 L 123.8 35.713 L 125.05 33.713 L 117 20.813 L 116.95 20.813 L 116.95 32.913 L 119.35 35.763 L 107.15 35.763 L 109.35 33.713 L 109.35 3.013 L 107.05 0.763 L 109.35 0.763 L 123.55 0.813 Q 126.1 0.813 128.1 1.713 Q 130.1 2.613 131.55 4.863 Q 132.85 6.913 133.125 9.288 A 11.553 11.553 0 0 1 133.203 10.618 A 11.031 11.031 0 0 1 132.7 13.913 Q 132.35 15.063 131.775 16.138 Q 131.2 17.213 130.375 18.113 Q 129.55 19.013 128.55 19.663 Q 127.55 20.313 126.35 20.613 A 4.501 4.501 0 0 1 125.985 20.719 A 3.74 3.74 0 0 1 125.775 20.763 A 3.167 3.167 0 0 1 125.275 20.813 A 3.545 3.545 0 0 1 125.2 20.813 Z M 674.85 23.213 L 681.95 29.963 Q 680.3 31.913 678.175 33.213 Q 676.05 34.513 673.725 35.088 A 15.696 15.696 0 0 1 669.943 35.544 A 16.82 16.82 0 0 1 668.925 35.513 Q 666.45 35.363 664.05 34.363 Q 661.7 33.363 659.85 31.613 Q 658 29.863 656.725 27.638 Q 655.45 25.413 654.725 22.913 Q 654 20.413 653.95 17.913 A 17.785 17.785 0 0 1 653.935 17.188 A 17.929 17.929 0 0 1 654.425 13.038 Q 655 10.613 656.175 8.488 Q 657.35 6.363 659.1 4.613 Q 660.85 2.863 663.1 1.713 Q 665.4 0.513 667.85 0.163 A 16.036 16.036 0 0 1 670.12 0 A 15.355 15.355 0 0 1 672.675 0.213 Q 675.05 0.613 677.25 1.738 Q 679.45 2.863 681.25 4.663 L 675 12.013 L 674.75 9.313 A 8.085 8.085 0 0 0 674.606 9.22 A 5.881 5.881 0 0 0 674.475 9.138 A 5.881 5.881 0 0 1 674.344 9.057 A 8.085 8.085 0 0 1 674.2 8.963 Q 673.85 8.763 673.525 8.588 Q 673.2 8.413 672.8 8.263 Q 671.5 7.813 670.15 7.813 A 7.064 7.064 0 0 0 669.185 7.877 A 5.656 5.656 0 0 0 668.5 8.013 Q 668.15 8.113 667.825 8.188 A 3.718 3.718 0 0 0 667.409 8.311 A 4.543 4.543 0 0 0 667.15 8.413 Q 666.75 8.563 666.425 8.763 A 105.493 105.493 0 0 0 666.081 8.976 A 144.907 144.907 0 0 0 665.7 9.213 Q 664.85 9.813 664.2 10.563 Q 663.85 10.963 663.55 11.413 Q 663.25 11.863 663 12.313 A 6.497 6.497 0 0 0 662.466 13.386 A 5.9 5.9 0 0 0 662.375 13.638 Q 662.15 14.313 661.95 15.013 Q 661.759 15.817 661.67 16.9 A 21.1 21.1 0 0 0 661.625 17.588 A 16.807 16.807 0 0 0 661.606 18.194 Q 661.591 19.304 661.741 20.16 A 7.297 7.297 0 0 0 661.75 20.213 A 15.752 15.752 0 0 0 662.063 21.388 A 12.469 12.469 0 0 0 662.35 22.213 A 7.494 7.494 0 0 0 662.905 23.338 A 9.287 9.287 0 0 0 663.35 24.013 A 6.549 6.549 0 0 0 663.706 24.528 A 5.62 5.62 0 0 0 663.875 24.738 Q 664.15 25.063 664.45 25.363 Q 665.1 26.063 665.95 26.563 Q 666.3 26.813 666.625 26.963 A 9.375 9.375 0 0 0 666.969 27.113 A 12.221 12.221 0 0 0 667.35 27.263 Q 668.75 27.763 670 27.763 A 7.195 7.195 0 0 0 670.52 27.744 A 8.664 8.664 0 0 0 670.85 27.713 A 6.672 6.672 0 0 0 671.49 27.612 A 5.804 5.804 0 0 0 671.7 27.563 A 5.51 5.51 0 0 0 672.846 27.187 A 5.066 5.066 0 0 0 673 27.113 A 5.189 5.189 0 0 0 673.706 26.788 A 4.788 4.788 0 0 0 673.75 26.763 A 8.136 8.136 0 0 0 674.362 26.375 A 8.98 8.98 0 0 0 674.45 26.313 L 674.6 26.163 L 674.85 23.213 Z M 186.55 0.563 L 197.9 33.863 L 200.3 35.863 L 189.9 35.863 L 187.85 28.963 L 178.15 28.963 L 176.8 33.413 L 177.8 35.863 L 167.4 35.863 L 178.2 4.613 L 176.9 3.213 L 186.55 0.563 Z M 294.75 0.563 L 306.1 33.863 L 308.5 35.863 L 298.1 35.863 L 296.05 28.963 L 286.35 28.963 L 285 33.413 L 286 35.863 L 275.6 35.863 L 286.4 4.613 L 285.1 3.213 L 294.75 0.563 Z M 72.95 7.163 L 64.2 7.163 L 64.2 33.563 L 65.95 35.763 L 64.2 35.813 L 56.1 35.813 L 56.1 35.763 L 54.55 35.763 L 56.1 33.613 L 56.1 7.163 L 46.65 7.163 L 48.6 1.213 L 75.05 1.063 L 72.95 7.163 Z M 226.2 7.163 L 217.45 7.163 L 217.45 33.563 L 219.2 35.763 L 217.45 35.813 L 209.35 35.813 L 209.35 35.763 L 207.8 35.763 L 209.35 33.613 L 209.35 7.163 L 199.9 7.163 L 201.85 1.213 L 228.3 1.063 L 226.2 7.163 Z M 442 7.163 L 433.25 7.163 L 433.25 33.563 L 435 35.763 L 433.25 35.813 L 425.15 35.813 L 425.15 35.763 L 423.6 35.763 L 425.15 33.613 L 425.15 7.163 L 415.7 7.163 L 417.65 1.213 L 444.1 1.063 L 442 7.163 Z M 630.95 7.163 L 622.2 7.163 L 622.2 33.563 L 623.95 35.763 L 622.2 35.813 L 614.1 35.813 L 614.1 35.763 L 612.55 35.763 L 614.1 33.613 L 614.1 7.163 L 604.65 7.163 L 606.6 1.213 L 633.05 1.063 L 630.95 7.163 Z M 765.2 35.913 L 746.3 35.913 L 748.2 33.413 L 748.1 2.963 L 745.8 0.713 L 748.1 0.713 L 763.45 0.763 A 10.06 10.06 0 0 1 764.511 0.698 Q 766.094 0.686 767.45 1.213 A 8.737 8.737 0 0 1 770.093 2.803 A 8.292 8.292 0 0 1 770.525 3.213 Q 771.8 4.513 772.5 6.238 A 8.665 8.665 0 0 1 773.153 9.524 A 8.631 8.631 0 0 1 773.15 9.763 A 8.468 8.468 0 0 1 772.45 12.875 A 9.923 9.923 0 0 1 772.25 13.313 A 8.28 8.28 0 0 1 770.563 15.622 A 10.355 10.355 0 0 1 769.65 16.413 Q 771.15 17.313 772.25 18.738 Q 773.35 20.163 773.95 21.838 Q 774.55 23.513 774.625 25.313 Q 774.7 27.113 774.2 28.813 Q 773.2 31.863 770.75 33.788 Q 768.3 35.713 765.2 35.913 Z M 490.65 35.963 L 483 35.963 L 481.05 35.963 L 483 33.563 L 483 3.413 L 481 1.063 L 484.9 1.063 L 490.35 1.063 A 253.482 253.482 0 0 1 493.055 1.077 A 228.115 228.115 0 0 1 493.925 1.088 Q 495.65 1.113 497.3 1.338 Q 498.95 1.563 500.575 2.138 A 15.995 15.995 0 0 1 502.609 3.029 A 20.022 20.022 0 0 1 503.9 3.763 Q 507 5.713 508.925 8.763 Q 510.85 11.813 511.5 15.263 A 18.03 18.03 0 0 1 511.813 18.609 A 18.853 18.853 0 0 1 511.45 22.263 Q 510.75 25.813 508.65 28.763 Q 506.55 31.663 503.55 33.438 Q 500.55 35.213 497.05 35.763 A 18.817 18.817 0 0 1 494.141 35.991 A 18.62 18.62 0 0 1 493.85 35.988 Q 492.25 35.963 490.65 35.963 Z M 351.45 29.863 L 366.5 29.863 L 364.15 35.713 L 343.35 35.713 L 343.35 4.913 L 341.5 3.013 L 351.45 0.613 L 351.45 29.863 Z M 693.8 29.863 L 708.85 29.863 L 706.5 35.713 L 685.7 35.713 L 685.7 4.913 L 683.85 3.013 L 693.8 0.613 L 693.8 29.863 Z M 259.3 0.863 Q 262.85 0.863 265.825 2.288 Q 268.8 3.713 270.975 6.113 Q 273.15 8.513 274.35 11.638 Q 275.55 14.763 275.55 18.163 Q 275.55 21.563 274.35 24.788 Q 273.15 28.013 270.975 30.513 Q 268.8 33.013 265.825 34.538 A 14.016 14.016 0 0 1 259.632 36.06 A 16.343 16.343 0 0 1 259.3 36.063 A 14.375 14.375 0 0 1 254.153 35.151 A 13.619 13.619 0 0 1 252.775 34.538 Q 249.8 33.013 247.65 30.513 Q 245.5 28.013 244.3 24.788 Q 243.1 21.563 243.1 18.163 Q 243.1 14.763 244.3 11.638 Q 245.5 8.513 247.65 6.113 Q 249.8 3.713 252.775 2.288 A 14.698 14.698 0 0 1 258.53 0.88 A 17.236 17.236 0 0 1 259.3 0.863 Z M 9.95 33.513 L 11.7 35.713 L 9.95 35.763 L 1.85 35.763 L 1.85 35.713 L 0.55 35.663 L 1.85 34.363 L 1.85 4.713 L 0 2.813 L 9.95 0.413 L 9.95 33.513 Z M 239.95 33.513 L 241.7 35.713 L 239.95 35.763 L 231.85 35.763 L 231.85 35.713 L 230.55 35.663 L 231.85 34.363 L 231.85 4.713 L 230 2.813 L 239.95 0.413 L 239.95 33.513 Z M 267.5 21.063 A 8.674 8.674 0 0 0 267.679 20.008 Q 267.74 19.459 267.749 18.842 A 14.73 14.73 0 0 0 267.75 18.638 A 16.143 16.143 0 0 0 267.712 17.497 Q 267.672 16.934 267.59 16.438 A 9.259 9.259 0 0 0 267.55 16.213 A 17.384 17.384 0 0 0 267.159 14.772 A 14.786 14.786 0 0 0 266.95 14.163 A 8.9 8.9 0 0 0 266.351 12.926 A 10.603 10.603 0 0 0 266 12.363 A 6.549 6.549 0 0 0 265.644 11.849 A 5.62 5.62 0 0 0 265.475 11.638 Q 265.2 11.313 264.9 11.013 Q 264.153 10.313 263.45 9.874 A 6.759 6.759 0 0 0 263.35 9.813 Q 263 9.613 262.675 9.438 Q 262.35 9.263 261.95 9.113 Q 260.65 8.663 259.3 8.663 Q 258.45 8.663 257.65 8.813 Q 257.3 8.913 256.975 9.013 A 6.429 6.429 0 0 0 256.516 9.174 A 7.619 7.619 0 0 0 256.3 9.263 Q 255.9 9.413 255.575 9.613 Q 255.25 9.813 254.85 10.063 A 10.483 10.483 0 0 0 253.973 10.81 A 8.381 8.381 0 0 0 253.4 11.413 Q 253 11.813 252.7 12.263 Q 252.4 12.713 252.15 13.163 A 6.497 6.497 0 0 0 251.616 14.236 A 5.9 5.9 0 0 0 251.525 14.488 Q 251.3 15.163 251.15 15.863 A 9.414 9.414 0 0 0 250.965 16.919 Q 250.899 17.468 250.88 18.085 A 15.962 15.962 0 0 0 250.875 18.288 Q 250.85 19.663 251.05 20.763 A 15.752 15.752 0 0 0 251.363 21.938 A 12.469 12.469 0 0 0 251.65 22.763 L 252.125 23.713 Q 252.35 24.163 252.65 24.563 A 6.549 6.549 0 0 0 253.006 25.078 A 5.62 5.62 0 0 0 253.175 25.288 Q 253.45 25.613 253.75 25.913 Q 254.4 26.613 255.25 27.113 Q 255.6 27.313 255.925 27.488 Q 256.25 27.663 256.65 27.813 A 9.884 9.884 0 0 0 258.248 28.196 A 12.238 12.238 0 0 0 259.3 28.313 A 7.195 7.195 0 0 0 259.82 28.294 A 8.664 8.664 0 0 0 260.15 28.263 A 6.672 6.672 0 0 0 260.79 28.162 A 5.804 5.804 0 0 0 261 28.113 A 5.51 5.51 0 0 0 262.146 27.737 A 5.066 5.066 0 0 0 262.3 27.663 A 5.189 5.189 0 0 0 263.006 27.338 A 4.788 4.788 0 0 0 263.05 27.313 A 8.136 8.136 0 0 0 263.662 26.925 A 8.98 8.98 0 0 0 263.75 26.863 Q 264.55 26.263 265.25 25.513 Q 265.6 25.113 265.925 24.688 Q 266.25 24.263 266.5 23.763 A 11.604 11.604 0 0 0 267.273 21.907 A 10.12 10.12 0 0 0 267.5 21.063 Z M 494.25 8.863 L 490.8 8.863 L 490.8 28.163 L 494.3 28.163 Q 495.9 28.163 497.4 27.713 A 13.668 13.668 0 0 0 499.087 27.019 A 14.998 14.998 0 0 0 499.2 26.963 A 8.769 8.769 0 0 0 500.322 26.248 A 8.06 8.06 0 0 0 500.4 26.188 A 10.957 10.957 0 0 0 501.156 25.545 A 12.98 12.98 0 0 0 501.5 25.213 A 5.675 5.675 0 0 0 501.845 24.834 Q 502.027 24.614 502.218 24.349 A 11.662 11.662 0 0 0 502.45 24.013 A 6.164 6.164 0 0 0 502.893 23.338 A 4.972 4.972 0 0 0 503.15 22.813 Q 503.25 22.613 503.325 22.413 A 2.584 2.584 0 0 0 503.401 22.176 A 3.371 3.371 0 0 0 503.45 21.963 Q 503.6 21.613 503.675 21.288 A 35.234 35.234 0 0 1 503.756 20.945 A 48.396 48.396 0 0 1 503.85 20.563 A 6.732 6.732 0 0 0 503.945 19.993 Q 504.009 19.479 504.025 18.838 A 16.702 16.702 0 0 0 504.03 18.538 Q 504.034 17.891 503.983 17.387 A 6.637 6.637 0 0 0 503.95 17.113 Q 503.8 15.763 503.25 14.513 A 7.066 7.066 0 0 0 501.851 12.181 A 8.186 8.186 0 0 0 501.65 11.963 Q 500.6 10.763 499.2 10.063 A 8.653 8.653 0 0 0 497.962 9.494 A 7.511 7.511 0 0 0 497.4 9.313 Q 495.8 8.863 494.25 8.863 Z M 762.2 29.063 L 762.25 29.063 Q 763.8 28.963 764.85 27.888 A 3.83 3.83 0 0 0 765.943 25.362 A 4.938 4.938 0 0 0 765.95 25.213 Q 765.95 24.413 765.65 23.688 A 3.826 3.826 0 0 0 764.921 22.539 A 3.658 3.658 0 0 0 764.825 22.438 A 3.663 3.663 0 0 0 763.779 21.713 A 4.308 4.308 0 0 0 763.55 21.613 Q 762.8 21.313 762 21.313 L 755.8 21.313 L 755.8 29.063 L 761.9 29.063 L 762.2 29.063 Z M 116.95 6.413 L 116.95 15.263 L 121.65 15.263 L 121.95 15.263 Q 122.75 15.213 123.4 14.788 Q 124.05 14.363 124.5 13.713 A 5.824 5.824 0 0 0 125.154 12.461 A 6.558 6.558 0 0 0 125.225 12.263 A 5.136 5.136 0 0 0 125.455 11.331 A 4.299 4.299 0 0 0 125.5 10.713 Q 125.5 9.913 125.225 9.138 A 4.872 4.872 0 0 0 124.673 8.034 A 4.449 4.449 0 0 0 124.475 7.763 Q 124 7.163 123.3 6.788 Q 122.6 6.413 121.75 6.413 L 116.95 6.413 Z M 755.7 7.013 L 762 7.013 L 762.425 7.013 A 2.145 2.145 0 0 1 762.619 7.022 Q 762.854 7.044 763.111 7.115 A 4.048 4.048 0 0 1 763.6 7.288 Q 764.25 7.563 764.8 8.213 A 1.995 1.995 0 0 1 765.114 8.733 Q 765.238 9.028 765.297 9.395 A 4.541 4.541 0 0 1 765.35 10.113 Q 765.35 11.563 764.325 12.613 Q 763.3 13.663 761.85 13.713 L 761.8 13.713 A 0.609 0.609 0 0 1 761.785 13.718 Q 761.703 13.743 761.636 13.737 A 0.239 0.239 0 0 1 761.55 13.713 L 755.7 13.713 L 755.7 7.013 Z M 183 12.813 L 179.75 23.563 L 186.2 23.563 L 183 12.813 Z M 291.2 12.813 L 287.95 23.563 L 294.4 23.563 L 291.2 12.813 Z M 762 7.013 L 762.05 7.013 L 762 7.013 Z" vector-effect="non-scaling-stroke"/></g></svg>